<?xml version="1.0" encoding="UTF-8" standalone="no"?>
<!DOCTYPE svg PUBLIC "-//W3C//DTD SVG 1.1//EN"
 "http://www.w3.org/Graphics/SVG/1.1/DTD/svg11.dtd">
<!-- Generated by graphviz version 2.40.1 (20161225.0304)
 -->
<!-- Title: G Pages: 1 -->
<svg width="936pt" height="795pt"
 viewBox="0.00 0.00 936.33 795.09" xmlns="http://www.w3.org/2000/svg" xmlns:xlink="http://www.w3.org/1999/xlink">
<g id="graph0" class="graph" transform="scale(1 1) rotate(0) translate(4 791.0925)">
<title>G</title>
<polygon fill="#ffffff" stroke="transparent" points="-4,4 -4,-791.0925 932.3268,-791.0925 932.3268,4 -4,4"/>
<!-- codistapi_app -->
<g id="node1" class="node">
<title>codistapi_app</title>
<ellipse fill="#950303" stroke="#000000" cx="493.1486" cy="-273.0782" rx="43.0238" ry="18"/>
<text text-anchor="middle" x="493.1486" y="-270.0782" font-family="Helvetica,sans-Serif" font-size="10.00" fill="#ffffff">codistapi.app</text>
</g>
<!-- codistapi_models -->
<g id="node2" class="node">
<title>codistapi_models</title>
<ellipse fill="#ef0606" stroke="#000000" cx="489.1486" cy="-199.2792" rx="41.3733" ry="19.6"/>
<text text-anchor="middle" x="489.1486" y="-201.2792" font-family="Helvetica,sans-Serif" font-size="10.00" fill="#ffffff">codistapi.</text>
<text text-anchor="middle" x="489.1486" y="-191.2792" font-family="Helvetica,sans-Serif" font-size="10.00" fill="#ffffff">models</text>
</g>
<!-- codistapi_app&#45;&gt;codistapi_models -->
<g id="edge1" class="edge">
<title>codistapi_app&#45;&gt;codistapi_models</title>
<path fill="none" stroke="#000000" d="M491.6179,-244.8374C491.3419,-239.7455 491.0533,-234.4204 490.7747,-229.2805"/>
<polygon fill="#000000" stroke="#000000" points="488.1236,-245.0399 492.1598,-254.8358 495.1134,-244.661 488.1236,-245.0399"/>
<polygon fill="#000000" stroke="#000000" points="494.2604,-228.9201 490.2242,-219.1242 487.2706,-229.299 494.2604,-228.9201"/>
</g>
<!-- codistapi_resources_analyze_repo -->
<g id="node3" class="node">
<title>codistapi_resources_analyze_repo</title>
<ellipse fill="#8a2e2e" stroke="#000000" cx="157.1486" cy="-26.8701" rx="53.5433" ry="26.7407"/>
<text text-anchor="middle" x="157.1486" y="-33.8701" font-family="Helvetica,sans-Serif" font-size="10.00" fill="#ffffff">codistapi.</text>
<text text-anchor="middle" x="157.1486" y="-23.8701" font-family="Helvetica,sans-Serif" font-size="10.00" fill="#ffffff">resources.</text>
<text text-anchor="middle" x="157.1486" y="-13.8701" font-family="Helvetica,sans-Serif" font-size="10.00" fill="#ffffff">analyze_repo</text>
</g>
<!-- codistapi_app&#45;&gt;codistapi_resources_analyze_repo -->
<g id="edge36" class="edge">
<title>codistapi_app&#45;&gt;codistapi_resources_analyze_repo</title>
<path fill="none" stroke="#000000" d="M439.8062,-269.6256C363.566,-261.5175 225.5513,-234.3702 161.1486,-143.4802 144.9575,-120.6302 145.0875,-88.4515 148.6325,-63.6839"/>
<polygon fill="#000000" stroke="#000000" points="439.8439,-273.1463 450.1399,-270.6479 440.5331,-266.1803 439.8439,-273.1463"/>
<polygon fill="#000000" stroke="#000000" points="152.1261,-64.0121 150.3232,-53.5718 145.222,-62.8576 152.1261,-64.0121"/>
</g>
<!-- codistapi_resources_update_task_result -->
<g id="node4" class="node">
<title>codistapi_resources_update_task_result</title>
<ellipse fill="#b03a3a" stroke="#000000" cx="634.1486" cy="-26.8701" rx="71.1313" ry="26.7407"/>
<text text-anchor="middle" x="634.1486" y="-33.8701" font-family="Helvetica,sans-Serif" font-size="10.00" fill="#ffffff">codistapi.</text>
<text text-anchor="middle" x="634.1486" y="-23.8701" font-family="Helvetica,sans-Serif" font-size="10.00" fill="#ffffff">resources.</text>
<text text-anchor="middle" x="634.1486" y="-13.8701" font-family="Helvetica,sans-Serif" font-size="10.00" fill="#ffffff">update_task_result</text>
</g>
<!-- codistapi_app&#45;&gt;codistapi_resources_update_task_result -->
<g id="edge30" class="edge">
<title>codistapi_app&#45;&gt;codistapi_resources_update_task_result</title>
<path fill="none" stroke="#000000" d="M523.7449,-251.2267C534.7356,-242.2289 546.5313,-231.095 555.1486,-219.0782 590.0362,-170.4271 612.8882,-104.0895 624.6492,-63.4349"/>
<polygon fill="#000000" stroke="#000000" points="521.2539,-248.7334 515.5632,-257.6702 525.5849,-254.2327 521.2539,-248.7334"/>
<polygon fill="#000000" stroke="#000000" points="628.0548,-64.2534 627.4009,-53.6788 621.3176,-62.3532 628.0548,-64.2534"/>
</g>
<!-- codistapi_resources_clone_repo -->
<g id="node5" class="node">
<title>codistapi_resources_clone_repo</title>
<ellipse fill="#8a2e2e" stroke="#000000" cx="339.1486" cy="-26.8701" rx="46.107" ry="26.7407"/>
<text text-anchor="middle" x="339.1486" y="-33.8701" font-family="Helvetica,sans-Serif" font-size="10.00" fill="#ffffff">codistapi.</text>
<text text-anchor="middle" x="339.1486" y="-23.8701" font-family="Helvetica,sans-Serif" font-size="10.00" fill="#ffffff">resources.</text>
<text text-anchor="middle" x="339.1486" y="-13.8701" font-family="Helvetica,sans-Serif" font-size="10.00" fill="#ffffff">clone_repo</text>
</g>
<!-- codistapi_app&#45;&gt;codistapi_resources_clone_repo -->
<g id="edge44" class="edge">
<title>codistapi_app&#45;&gt;codistapi_resources_clone_repo</title>
<path fill="none" stroke="#000000" d="M462.6328,-251.2365C450.8466,-242.0291 437.6905,-230.747 427.1486,-219.0782 400.1441,-189.187 394.6588,-179.7586 377.1486,-143.4802 364.7325,-117.7561 354.8943,-86.9713 348.3417,-63.4933"/>
<polygon fill="#000000" stroke="#000000" points="460.8411,-254.2716 470.9159,-257.5501 465.0845,-248.7044 460.8411,-254.2716"/>
<polygon fill="#000000" stroke="#000000" points="351.6506,-62.3227 345.6508,-53.5904 344.8955,-64.1583 351.6506,-62.3227"/>
</g>
<!-- codistapi_resources_get_task_result -->
<g id="node9" class="node">
<title>codistapi_resources_get_task_result</title>
<ellipse fill="#b03a3a" stroke="#000000" cx="486.1486" cy="-26.8701" rx="59.0366" ry="26.7407"/>
<text text-anchor="middle" x="486.1486" y="-33.8701" font-family="Helvetica,sans-Serif" font-size="10.00" fill="#ffffff">codistapi.</text>
<text text-anchor="middle" x="486.1486" y="-23.8701" font-family="Helvetica,sans-Serif" font-size="10.00" fill="#ffffff">resources.</text>
<text text-anchor="middle" x="486.1486" y="-13.8701" font-family="Helvetica,sans-Serif" font-size="10.00" fill="#ffffff">get_task_result</text>
</g>
<!-- codistapi_app&#45;&gt;codistapi_resources_get_task_result -->
<g id="edge40" class="edge">
<title>codistapi_app&#45;&gt;codistapi_resources_get_task_result</title>
<path fill="none" stroke="#000000" d="M519.6931,-249.2919C527.5005,-240.6415 535.0437,-230.227 539.1486,-219.0782 546.7836,-198.3413 543.8329,-115.9553 534.1486,-89.7401 530.2137,-79.0886 523.8131,-68.7589 516.95,-59.6543"/>
<polygon fill="#000000" stroke="#000000" points="516.9614,-247.0826 512.5399,-256.7107 522.0005,-251.9413 516.9614,-247.0826"/>
<polygon fill="#000000" stroke="#000000" points="519.5471,-57.2975 510.5746,-51.6632 514.0752,-61.6631 519.5471,-57.2975"/>
</g>
<!-- codistapi_login_helpers -->
<g id="node11" class="node">
<title>codistapi_login_helpers</title>
<ellipse fill="#b03a3a" stroke="#000000" cx="439.1486" cy="-116.6102" rx="53.2555" ry="19.6"/>
<text text-anchor="middle" x="439.1486" y="-118.6102" font-family="Helvetica,sans-Serif" font-size="10.00" fill="#ffffff">codistapi.</text>
<text text-anchor="middle" x="439.1486" y="-108.6102" font-family="Helvetica,sans-Serif" font-size="10.00" fill="#ffffff">login_helpers</text>
</g>
<!-- codistapi_app&#45;&gt;codistapi_login_helpers -->
<g id="edge16" class="edge">
<title>codistapi_app&#45;&gt;codistapi_login_helpers</title>
<path fill="none" stroke="#000000" d="M463.1429,-251.0611C453.6114,-242.2925 444.233,-231.3531 439.1486,-219.0782 429.5975,-196.0198 430.515,-167.4596 433.2955,-146.3533"/>
<polygon fill="#000000" stroke="#000000" points="460.8816,-253.7327 470.7407,-257.612 465.4526,-248.4312 460.8816,-253.7327"/>
<polygon fill="#000000" stroke="#000000" points="436.7723,-146.7703 434.8228,-136.3563 429.8526,-145.713 436.7723,-146.7703"/>
</g>
<!-- codistapi_resources_user_details -->
<g id="node12" class="node">
<title>codistapi_resources_user_details</title>
<ellipse fill="#b03a3a" stroke="#000000" cx="773.1486" cy="-26.8701" rx="49.3832" ry="26.7407"/>
<text text-anchor="middle" x="773.1486" y="-33.8701" font-family="Helvetica,sans-Serif" font-size="10.00" fill="#ffffff">codistapi.</text>
<text text-anchor="middle" x="773.1486" y="-23.8701" font-family="Helvetica,sans-Serif" font-size="10.00" fill="#ffffff">resources.</text>
<text text-anchor="middle" x="773.1486" y="-13.8701" font-family="Helvetica,sans-Serif" font-size="10.00" fill="#ffffff">user_details</text>
</g>
<!-- codistapi_app&#45;&gt;codistapi_resources_user_details -->
<g id="edge28" class="edge">
<title>codistapi_app&#45;&gt;codistapi_resources_user_details</title>
<path fill="none" stroke="#000000" d="M528.4109,-253.6724C544.7342,-244.0754 564.0342,-231.8296 580.1486,-219.0782 643.9431,-168.5971 709.1531,-99.1649 745.0679,-59.0481"/>
<polygon fill="#000000" stroke="#000000" points="526.5917,-250.6813 519.6878,-258.7179 530.0965,-256.7407 526.5917,-250.6813"/>
<polygon fill="#000000" stroke="#000000" points="747.8151,-61.2259 751.8511,-51.4299 742.5871,-56.5709 747.8151,-61.2259"/>
</g>
<!-- codistapi_manage -->
<g id="node13" class="node">
<title>codistapi_manage</title>
<ellipse fill="#ac4949" stroke="#000000" cx="779.1486" cy="-199.2792" rx="41.3733" ry="19.6"/>
<text text-anchor="middle" x="779.1486" y="-201.2792" font-family="Helvetica,sans-Serif" font-size="10.00" fill="#ffffff">codistapi.</text>
<text text-anchor="middle" x="779.1486" y="-191.2792" font-family="Helvetica,sans-Serif" font-size="10.00" fill="#ffffff">manage</text>
</g>
<!-- codistapi_app&#45;&gt;codistapi_manage -->
<g id="edge13" class="edge">
<title>codistapi_app&#45;&gt;codistapi_manage</title>
<path fill="none" stroke="#000000" d="M532.3373,-265.3638C578.5809,-255.9286 657.6014,-238.7623 724.1486,-219.0782 728.4244,-217.8135 732.8527,-216.3996 737.2551,-214.9251"/>
<polygon fill="#000000" stroke="#000000" points="738.4726,-218.2076 746.7821,-211.6347 736.1874,-211.5911 738.4726,-218.2076"/>
</g>
<!-- codistapi_wsgi -->
<g id="node15" class="node">
<title>codistapi_wsgi</title>
<ellipse fill="#ac4949" stroke="#000000" cx="883.1486" cy="-199.2792" rx="45.3572" ry="18"/>
<text text-anchor="middle" x="883.1486" y="-196.2792" font-family="Helvetica,sans-Serif" font-size="10.00" fill="#ffffff">codistapi.wsgi</text>
</g>
<!-- codistapi_app&#45;&gt;codistapi_wsgi -->
<g id="edge17" class="edge">
<title>codistapi_app&#45;&gt;codistapi_wsgi</title>
<path fill="none" stroke="#000000" d="M535.3275,-268.9314C599.5204,-262.0324 725.2502,-246.2052 829.1486,-219.0782 833.2245,-218.014 837.4235,-216.7629 841.5944,-215.4153"/>
<polygon fill="#000000" stroke="#000000" points="842.8688,-218.6787 851.2042,-212.1386 840.6097,-212.0533 842.8688,-218.6787"/>
</g>
<!-- codistapi_models&#45;&gt;codistapi_resources_analyze_repo -->
<g id="edge35" class="edge">
<title>codistapi_models&#45;&gt;codistapi_resources_analyze_repo</title>
<path fill="none" stroke="#000000" d="M448.2715,-196.5886C376.5798,-191.0684 232.2485,-176.1291 195.1486,-143.4802 172.5299,-123.5753 163.3059,-90.0471 159.5796,-64.0377"/>
<polygon fill="#000000" stroke="#000000" points="163.0127,-63.2753 158.3318,-53.7707 156.0639,-64.1199 163.0127,-63.2753"/>
</g>
<!-- codistapi_models&#45;&gt;codistapi_resources_update_task_result -->
<g id="edge31" class="edge">
<title>codistapi_models&#45;&gt;codistapi_resources_update_task_result</title>
<path fill="none" stroke="#000000" d="M504.6661,-180.8284C528.7783,-152.1583 575.6071,-96.4775 605.8468,-60.5216"/>
<polygon fill="#000000" stroke="#000000" points="608.6484,-62.6282 612.4063,-52.7222 603.2911,-58.1227 608.6484,-62.6282"/>
</g>
<!-- codistapi_models&#45;&gt;codistapi_resources_clone_repo -->
<g id="edge43" class="edge">
<title>codistapi_models&#45;&gt;codistapi_resources_clone_repo</title>
<path fill="none" stroke="#000000" d="M520.1486,-116.6102C516.4136,-102.4689 512.6784,-98.7395 501.1486,-89.7401 491.7598,-82.4119 432.3127,-60.2024 388.1365,-44.2589"/>
<polygon fill="#000000" stroke="#000000" points="389.279,-40.9504 378.6846,-40.8589 386.9096,-47.5372 389.279,-40.9504"/>
<path fill="none" stroke="#000000" d="M503.286,-180.587C514.0539,-164.0569 526.0981,-139.1366 520.1486,-116.6102"/>
</g>
<!-- codistapi_models&#45;&gt;codistapi_resources_get_task_result -->
<g id="edge41" class="edge">
<title>codistapi_models&#45;&gt;codistapi_resources_get_task_result</title>
<path fill="none" stroke="#000000" d="M520.1486,-116.6102C515.3922,-98.6017 508.3059,-79.2075 501.8318,-63.0723"/>
<polygon fill="#000000" stroke="#000000" points="504.9355,-61.4156 497.9061,-53.4885 498.4578,-64.069 504.9355,-61.4156"/>
</g>
<!-- codistapi_models&#45;&gt;codistapi_login_helpers -->
<g id="edge15" class="edge">
<title>codistapi_models&#45;&gt;codistapi_login_helpers</title>
<path fill="none" stroke="#000000" d="M477.5519,-180.1055C471.161,-169.5389 463.111,-156.2292 456.0341,-144.5283"/>
<polygon fill="#000000" stroke="#000000" points="459.0257,-142.7116 450.8556,-135.9663 453.036,-146.3343 459.0257,-142.7116"/>
</g>
<!-- codistapi_models&#45;&gt;codistapi_resources_user_details -->
<g id="edge29" class="edge">
<title>codistapi_models&#45;&gt;codistapi_resources_user_details</title>
<path fill="none" stroke="#000000" d="M514.8526,-183.675C563.945,-153.8722 671.4624,-88.6011 731.14,-52.3724"/>
<polygon fill="#000000" stroke="#000000" points="733.2062,-55.2126 739.938,-47.0313 729.5736,-49.2289 733.2062,-55.2126"/>
</g>
<!-- codistapi_resources -->
<g id="node6" class="node">
<title>codistapi_resources</title>
<ellipse fill="#db2f2f" stroke="#000000" cx="428.1486" cy="-346.8772" rx="42.2207" ry="19.6"/>
<text text-anchor="middle" x="428.1486" y="-348.8772" font-family="Helvetica,sans-Serif" font-size="10.00" fill="#ffffff">codistapi.</text>
<text text-anchor="middle" x="428.1486" y="-338.8772" font-family="Helvetica,sans-Serif" font-size="10.00" fill="#ffffff">resources</text>
</g>
<!-- codistapi_resources&#45;&gt;codistapi_app -->
<g id="edge5" class="edge">
<title>codistapi_resources&#45;&gt;codistapi_app</title>
<path fill="none" stroke="#000000" d="M444.5508,-328.2546C452.6226,-319.0901 462.4668,-307.9134 471.179,-298.0218"/>
<polygon fill="#000000" stroke="#000000" points="473.8848,-300.2451 477.8679,-290.4274 468.6318,-295.6184 473.8848,-300.2451"/>
</g>
<!-- codistapi_resources_ping -->
<g id="node7" class="node">
<title>codistapi_resources_ping</title>
<ellipse fill="#c24747" stroke="#000000" cx="570.1486" cy="-429.5462" rx="44.1501" ry="26.7407"/>
<text text-anchor="middle" x="570.1486" y="-436.5462" font-family="Helvetica,sans-Serif" font-size="10.00" fill="#ffffff">codistapi.</text>
<text text-anchor="middle" x="570.1486" y="-426.5462" font-family="Helvetica,sans-Serif" font-size="10.00" fill="#ffffff">resources.</text>
<text text-anchor="middle" x="570.1486" y="-416.5462" font-family="Helvetica,sans-Serif" font-size="10.00" fill="#ffffff">ping</text>
</g>
<!-- codistapi_resources_ping&#45;&gt;codistapi_app -->
<g id="edge7" class="edge">
<title>codistapi_resources_ping&#45;&gt;codistapi_app</title>
<path fill="none" stroke="#000000" d="M541.5613,-408.6585C524.2177,-393.7843 504.2806,-372.0246 498.1486,-346.8772"/>
</g>
<!-- codistapi_resources_task_status -->
<g id="node8" class="node">
<title>codistapi_resources_task_status</title>
<ellipse fill="#b03a3a" stroke="#000000" cx="334.1486" cy="-429.5462" rx="47.16" ry="26.7407"/>
<text text-anchor="middle" x="334.1486" y="-436.5462" font-family="Helvetica,sans-Serif" font-size="10.00" fill="#ffffff">codistapi.</text>
<text text-anchor="middle" x="334.1486" y="-426.5462" font-family="Helvetica,sans-Serif" font-size="10.00" fill="#ffffff">resources.</text>
<text text-anchor="middle" x="334.1486" y="-416.5462" font-family="Helvetica,sans-Serif" font-size="10.00" fill="#ffffff">task_status</text>
</g>
<!-- codistapi_resources_task_status&#45;&gt;codistapi_app -->
<g id="edge8" class="edge">
<title>codistapi_resources_task_status&#45;&gt;codistapi_app</title>
<path fill="none" stroke="#000000" d="M339.7212,-402.5663C345.6176,-379.9472 356.9482,-348.0687 377.1486,-327.0782 395.9506,-307.5408 423.1947,-294.3579 446.5559,-285.9115"/>
<polygon fill="#000000" stroke="#000000" points="447.9673,-289.1278 456.2942,-282.5769 445.6996,-282.5053 447.9673,-289.1278"/>
</g>
<!-- codistapi_constants -->
<g id="node10" class="node">
<title>codistapi_constants</title>
<ellipse fill="#f91010" stroke="#000000" cx="219.1486" cy="-767.2935" rx="41.6598" ry="19.6"/>
<text text-anchor="middle" x="219.1486" y="-769.2935" font-family="Helvetica,sans-Serif" font-size="10.00" fill="#ffffff">codistapi.</text>
<text text-anchor="middle" x="219.1486" y="-759.2935" font-family="Helvetica,sans-Serif" font-size="10.00" fill="#ffffff">constants</text>
</g>
<!-- codistapi_constants&#45;&gt;codistapi_app -->
<g id="edge10" class="edge">
<title>codistapi_constants&#45;&gt;codistapi_app</title>
<path fill="none" stroke="#000000" d="M498.1486,-429.5462C483.4649,-395.8662 506.8528,-382.5731 498.1486,-346.8772"/>
<path fill="none" stroke="#000000" d="M498.1486,-346.8772C494.5718,-332.209 493.2257,-315.4482 492.8159,-301.6107"/>
<polygon fill="#000000" stroke="#000000" points="496.3101,-301.1832 492.6632,-291.2358 489.3108,-301.2863 496.3101,-301.1832"/>
</g>
<!-- codistapi_constants&#45;&gt;codistapi_resources_analyze_repo -->
<g id="edge39" class="edge">
<title>codistapi_constants&#45;&gt;codistapi_resources_analyze_repo</title>
<path fill="none" stroke="#000000" d="M192.7145,-751.8328C173.0276,-738.6534 147.6485,-717.7251 136.1486,-691.6955"/>
<path fill="none" stroke="#000000" d="M100.1486,-273.0782C103.4175,-196.7551 128.6073,-110.3597 144.3873,-62.8992"/>
<polygon fill="#000000" stroke="#000000" points="147.7183,-63.9744 147.6005,-53.3802 141.086,-61.7356 147.7183,-63.9744"/>
<path fill="none" stroke="#000000" d="M55.1486,-609.0265C36.7517,-578.4299 16.9175,-579.8623 5.1486,-546.1564 -2.7249,-523.607 .3013,-515.8038 5.1486,-492.4163 15.9284,-440.4044 94.3097,-325.8736 100.1486,-273.0782"/>
<path fill="none" stroke="#000000" d="M136.1486,-691.6955C121.167,-657.7857 98.7804,-663.6021 74.1486,-635.8965 64.4304,-624.9657 62.1253,-621.8815 55.1486,-609.0265"/>
</g>
<!-- codistapi_constants&#45;&gt;codistapi_resources_clone_repo -->
<g id="edge47" class="edge">
<title>codistapi_constants&#45;&gt;codistapi_resources_clone_repo</title>
<path fill="none" stroke="#000000" d="M498.1486,-429.5462C473.9285,-373.9926 414.203,-414.6322 377.1486,-366.6762 307.4519,-276.4745 275.5464,-221.5131 320.1486,-116.6102"/>
<path fill="none" stroke="#000000" d="M498.1486,-691.6955C546.2229,-585.5653 537.2629,-539.2952 498.1486,-429.5462"/>
</g>
<!-- codistapi_enry_wrapper -->
<g id="node14" class="node">
<title>codistapi_enry_wrapper</title>
<ellipse fill="#b83d3d" stroke="#000000" cx="219.1486" cy="-691.6955" rx="54.5961" ry="19.6"/>
<text text-anchor="middle" x="219.1486" y="-693.6955" font-family="Helvetica,sans-Serif" font-size="10.00" fill="#ffffff">codistapi.</text>
<text text-anchor="middle" x="219.1486" y="-683.6955" font-family="Helvetica,sans-Serif" font-size="10.00" fill="#ffffff">enry_wrapper</text>
</g>
<!-- codistapi_constants&#45;&gt;codistapi_enry_wrapper -->
<g id="edge14" class="edge">
<title>codistapi_constants&#45;&gt;codistapi_enry_wrapper</title>
<path fill="none" stroke="#000000" d="M219.1486,-747.431C219.1486,-739.5935 219.1486,-730.4166 219.1486,-721.7974"/>
<polygon fill="#000000" stroke="#000000" points="222.6487,-721.6878 219.1486,-711.6878 215.6487,-721.6879 222.6487,-721.6878"/>
</g>
<!-- codistapi_celery_tasks_celery_app -->
<g id="node16" class="node">
<title>codistapi_celery_tasks_celery_app</title>
<ellipse fill="#c43131" stroke="#000000" cx="417.1486" cy="-609.0265" rx="52.6532" ry="26.7407"/>
<text text-anchor="middle" x="417.1486" y="-616.0265" font-family="Helvetica,sans-Serif" font-size="10.00" fill="#ffffff">codistapi.</text>
<text text-anchor="middle" x="417.1486" y="-606.0265" font-family="Helvetica,sans-Serif" font-size="10.00" fill="#ffffff">celery_tasks.</text>
<text text-anchor="middle" x="417.1486" y="-596.0265" font-family="Helvetica,sans-Serif" font-size="10.00" fill="#ffffff">celery_app</text>
</g>
<!-- codistapi_constants&#45;&gt;codistapi_celery_tasks_celery_app -->
<g id="edge21" class="edge">
<title>codistapi_constants&#45;&gt;codistapi_celery_tasks_celery_app</title>
<path fill="none" stroke="#000000" d="M260.1501,-763.5907C332.7996,-755.9466 478.3735,-735.3514 498.1486,-691.6955"/>
<path fill="none" stroke="#000000" d="M498.1486,-691.6955C508.8554,-668.0588 488.1475,-647.2322 464.9949,-632.3955"/>
<polygon fill="#000000" stroke="#000000" points="466.7769,-629.3829 456.408,-627.2063 463.1563,-635.3739 466.7769,-629.3829"/>
</g>
<!-- codistapi_celery_tasks_analyze_git_repo -->
<g id="node18" class="node">
<title>codistapi_celery_tasks_analyze_git_repo</title>
<ellipse fill="#a83838" stroke="#000000" cx="203.1486" cy="-519.2864" rx="65.3443" ry="26.7407"/>
<text text-anchor="middle" x="203.1486" y="-526.2864" font-family="Helvetica,sans-Serif" font-size="10.00" fill="#ffffff">codistapi.</text>
<text text-anchor="middle" x="203.1486" y="-516.2864" font-family="Helvetica,sans-Serif" font-size="10.00" fill="#ffffff">celery_tasks.</text>
<text text-anchor="middle" x="203.1486" y="-506.2864" font-family="Helvetica,sans-Serif" font-size="10.00" fill="#ffffff">analyze_git_repo</text>
</g>
<!-- codistapi_constants&#45;&gt;codistapi_celery_tasks_analyze_git_repo -->
<g id="edge27" class="edge">
<title>codistapi_constants&#45;&gt;codistapi_celery_tasks_analyze_git_repo</title>
<path fill="none" stroke="#000000" d="M136.1486,-691.6955C115.361,-644.6441 209.6911,-659.9219 217.1486,-609.0265"/>
<path fill="none" stroke="#000000" d="M217.1486,-609.0265C219.6989,-591.6208 217.3676,-572.3427 213.9251,-556.1297"/>
<polygon fill="#000000" stroke="#000000" points="217.2331,-554.9055 211.5426,-545.9686 210.4179,-556.5036 217.2331,-554.9055"/>
</g>
<!-- codistapi_celery_tasks_git_repo_get -->
<g id="node19" class="node">
<title>codistapi_celery_tasks_git_repo_get</title>
<ellipse fill="#b03a3a" stroke="#000000" cx="67.1486" cy="-519.2864" rx="52.6532" ry="26.7407"/>
<text text-anchor="middle" x="67.1486" y="-526.2864" font-family="Helvetica,sans-Serif" font-size="10.00" fill="#ffffff">codistapi.</text>
<text text-anchor="middle" x="67.1486" y="-516.2864" font-family="Helvetica,sans-Serif" font-size="10.00" fill="#ffffff">celery_tasks.</text>
<text text-anchor="middle" x="67.1486" y="-506.2864" font-family="Helvetica,sans-Serif" font-size="10.00" fill="#ffffff">git_repo_get</text>
</g>
<!-- codistapi_constants&#45;&gt;codistapi_celery_tasks_git_repo_get -->
<g id="edge23" class="edge">
<title>codistapi_constants&#45;&gt;codistapi_celery_tasks_git_repo_get</title>
<path fill="none" stroke="#000000" d="M55.1486,-609.0265C45.6016,-593.1486 47.3897,-572.8681 52.0989,-555.6049"/>
<polygon fill="#000000" stroke="#000000" points="55.5066,-556.4341 55.1455,-545.8454 48.8246,-554.3481 55.5066,-556.4341"/>
</g>
<!-- codistapi_celery_tasks_utils -->
<g id="node20" class="node">
<title>codistapi_celery_tasks_utils</title>
<ellipse fill="#c43131" stroke="#000000" cx="136.1486" cy="-609.0265" rx="52.6532" ry="26.7407"/>
<text text-anchor="middle" x="136.1486" y="-616.0265" font-family="Helvetica,sans-Serif" font-size="10.00" fill="#ffffff">codistapi.</text>
<text text-anchor="middle" x="136.1486" y="-606.0265" font-family="Helvetica,sans-Serif" font-size="10.00" fill="#ffffff">celery_tasks.</text>
<text text-anchor="middle" x="136.1486" y="-596.0265" font-family="Helvetica,sans-Serif" font-size="10.00" fill="#ffffff">utils</text>
</g>
<!-- codistapi_constants&#45;&gt;codistapi_celery_tasks_utils -->
<g id="edge22" class="edge">
<title>codistapi_constants&#45;&gt;codistapi_celery_tasks_utils</title>
<path fill="none" stroke="#000000" d="M136.1486,-691.6955C129.9411,-677.6454 128.9239,-660.8944 129.8421,-646.1565"/>
<polygon fill="#000000" stroke="#000000" points="133.3597,-646.1306 130.8062,-635.8481 126.3901,-645.4787 133.3597,-646.1306"/>
</g>
<!-- codistapi_enry_wrapper&#45;&gt;codistapi_celery_tasks_analyze_git_repo -->
<g id="edge26" class="edge">
<title>codistapi_enry_wrapper&#45;&gt;codistapi_celery_tasks_analyze_git_repo</title>
<path fill="none" stroke="#000000" d="M216.798,-671.8718C215.2498,-655.0537 214.0265,-630.3337 217.1486,-609.0265"/>
</g>
<!-- codistapi_celery_tasks_celery_app&#45;&gt;codistapi_resources_task_status -->
<g id="edge32" class="edge">
<title>codistapi_celery_tasks_celery_app&#45;&gt;codistapi_resources_task_status</title>
<path fill="none" stroke="#000000" d="M334.1486,-519.2864C320.3141,-505.9838 319.7939,-484.704 322.9778,-466.2044"/>
<polygon fill="#000000" stroke="#000000" points="326.4316,-466.7878 325.0667,-456.2812 319.5817,-465.3458 326.4316,-466.7878"/>
</g>
<!-- codistapi_celery_tasks_tasks -->
<g id="node17" class="node">
<title>codistapi_celery_tasks_tasks</title>
<ellipse fill="#bc2f2f" stroke="#000000" cx="124.1486" cy="-429.5462" rx="52.6532" ry="26.7407"/>
<text text-anchor="middle" x="124.1486" y="-436.5462" font-family="Helvetica,sans-Serif" font-size="10.00" fill="#ffffff">codistapi.</text>
<text text-anchor="middle" x="124.1486" y="-426.5462" font-family="Helvetica,sans-Serif" font-size="10.00" fill="#ffffff">celery_tasks.</text>
<text text-anchor="middle" x="124.1486" y="-416.5462" font-family="Helvetica,sans-Serif" font-size="10.00" fill="#ffffff">tasks</text>
</g>
<!-- codistapi_celery_tasks_celery_app&#45;&gt;codistapi_celery_tasks_tasks -->
<g id="edge18" class="edge">
<title>codistapi_celery_tasks_celery_app&#45;&gt;codistapi_celery_tasks_tasks</title>
<path fill="none" stroke="#000000" d="M395.6966,-584.3025C379.3586,-565.8569 356.0239,-540.3205 334.1486,-519.2864"/>
<path fill="none" stroke="#000000" d="M334.1486,-519.2864C322.6064,-508.188 323.5083,-501.243 310.1486,-492.4163 271.6409,-466.9746 221.835,-450.858 183.4545,-441.3195"/>
<polygon fill="#000000" stroke="#000000" points="183.9961,-437.8501 173.4552,-438.9179 182.3614,-444.6565 183.9961,-437.8501"/>
</g>
<!-- codistapi_celery_tasks_tasks&#45;&gt;codistapi_resources_analyze_repo -->
<g id="edge38" class="edge">
<title>codistapi_celery_tasks_tasks&#45;&gt;codistapi_resources_analyze_repo</title>
<path fill="none" stroke="#000000" d="M112.6455,-403.2982C106.6298,-387.3179 100.4454,-366.3032 100.1486,-346.8772"/>
<path fill="none" stroke="#000000" d="M100.1486,-346.8772C99.6473,-314.0815 98.745,-305.8477 100.1486,-273.0782"/>
</g>
<!-- codistapi_celery_tasks_tasks&#45;&gt;codistapi_resources_clone_repo -->
<g id="edge46" class="edge">
<title>codistapi_celery_tasks_tasks&#45;&gt;codistapi_resources_clone_repo</title>
<path fill="none" stroke="#000000" d="M138.1486,-273.0782C149.7785,-181.2599 237.5709,-210.7389 301.1486,-143.4802 311.1959,-132.8512 312.8686,-129.2959 320.1486,-116.6102"/>
<path fill="none" stroke="#000000" d="M320.1486,-116.6102C327.218,-99.983 331.7532,-80.4679 334.6118,-63.8903"/>
<polygon fill="#000000" stroke="#000000" points="338.0706,-64.4254 336.1827,-54.0001 331.1573,-63.3272 338.0706,-64.4254"/>
<path fill="none" stroke="#000000" d="M100.1486,-346.8772C99.5848,-309.9892 120.2841,-305.3568 138.1486,-273.0782"/>
</g>
<!-- codistapi_celery_tasks_analyze_git_repo&#45;&gt;codistapi_celery_tasks_tasks -->
<g id="edge19" class="edge">
<title>codistapi_celery_tasks_analyze_git_repo&#45;&gt;codistapi_celery_tasks_tasks</title>
<path fill="none" stroke="#000000" d="M180.7216,-493.8105C171.9974,-483.9002 161.8972,-472.4269 152.6663,-461.941"/>
<polygon fill="#000000" stroke="#000000" points="155.0488,-459.3504 145.814,-454.1571 149.7946,-463.9758 155.0488,-459.3504"/>
</g>
<!-- codistapi_celery_tasks_git_repo_get&#45;&gt;codistapi_celery_tasks_tasks -->
<g id="edge20" class="edge">
<title>codistapi_celery_tasks_git_repo_get&#45;&gt;codistapi_celery_tasks_tasks</title>
<path fill="none" stroke="#000000" d="M83.6353,-493.3298C89.4755,-484.135 96.1395,-473.6433 102.3529,-463.8611"/>
<polygon fill="#000000" stroke="#000000" points="105.4885,-465.4523 107.8957,-455.1346 99.5797,-461.6992 105.4885,-465.4523"/>
</g>
<!-- codistapi_celery_tasks_utils&#45;&gt;codistapi_celery_tasks_analyze_git_repo -->
<g id="edge25" class="edge">
<title>codistapi_celery_tasks_utils&#45;&gt;codistapi_celery_tasks_analyze_git_repo</title>
<path fill="none" stroke="#000000" d="M155.1689,-583.5506C162.181,-574.1585 170.2413,-563.3625 177.7288,-553.3337"/>
<polygon fill="#000000" stroke="#000000" points="180.67,-555.2446 183.848,-545.1376 175.0609,-551.0567 180.67,-555.2446"/>
</g>
<!-- codistapi_celery_tasks_utils&#45;&gt;codistapi_celery_tasks_git_repo_get -->
<g id="edge24" class="edge">
<title>codistapi_celery_tasks_utils&#45;&gt;codistapi_celery_tasks_git_repo_get</title>
<path fill="none" stroke="#000000" d="M116.5605,-583.5506C109.141,-573.901 100.5822,-562.7696 92.6943,-552.5107"/>
<polygon fill="#000000" stroke="#000000" points="95.4169,-550.3095 86.5468,-544.5153 89.8676,-554.5763 95.4169,-550.3095"/>
</g>
<!-- codistapi_celery_tasks -->
<g id="node21" class="node">
<title>codistapi_celery_tasks</title>
<ellipse fill="#db2f2f" stroke="#000000" cx="296.1486" cy="-609.0265" rx="50.7242" ry="19.6"/>
<text text-anchor="middle" x="296.1486" y="-611.0265" font-family="Helvetica,sans-Serif" font-size="10.00" fill="#ffffff">codistapi.</text>
<text text-anchor="middle" x="296.1486" y="-601.0265" font-family="Helvetica,sans-Serif" font-size="10.00" fill="#ffffff">celery_tasks</text>
</g>
<!-- codistapi_celery_tasks&#45;&gt;codistapi_resources_analyze_repo -->
<g id="edge37" class="edge">
<title>codistapi_celery_tasks&#45;&gt;codistapi_resources_analyze_repo</title>
<path fill="none" stroke="#000000" d="M296.6879,-589.0539C297.051,-570.8594 297.281,-543.2526 296.1486,-519.2864"/>
<path fill="none" stroke="#000000" d="M138.1486,-346.8772C118.1402,-315.8818 98.5699,-309.9368 100.1486,-273.0782"/>
<path fill="none" stroke="#000000" d="M296.1486,-519.2864C295.4582,-504.6765 286.4468,-503.7065 277.1486,-492.4163 248.717,-457.8942 162.4037,-384.4514 138.1486,-346.8772"/>
</g>
<!-- codistapi_celery_tasks&#45;&gt;codistapi_resources_clone_repo -->
<g id="edge45" class="edge">
<title>codistapi_celery_tasks&#45;&gt;codistapi_resources_clone_repo</title>
<path fill="none" stroke="#000000" d="M138.1486,-346.8772C120.3599,-319.3204 122.266,-301.7758 138.1486,-273.0782"/>
</g>
<!-- codistapi_celery_tasks&#45;&gt;codistapi_resources_task_status -->
<g id="edge33" class="edge">
<title>codistapi_celery_tasks&#45;&gt;codistapi_resources_task_status</title>
<path fill="none" stroke="#000000" d="M296.1486,-519.2864C295.234,-499.9316 302.7426,-479.9343 311.321,-463.7427"/>
<polygon fill="#000000" stroke="#000000" points="314.568,-465.111 316.4399,-454.6828 308.4735,-461.6675 314.568,-465.111"/>
</g>
<!-- codistapi_resources_utils -->
<g id="node22" class="node">
<title>codistapi_resources_utils</title>
<ellipse fill="#ce3b3b" stroke="#000000" cx="248.1486" cy="-116.6102" rx="44.1501" ry="26.7407"/>
<text text-anchor="middle" x="248.1486" y="-123.6102" font-family="Helvetica,sans-Serif" font-size="10.00" fill="#ffffff">codistapi.</text>
<text text-anchor="middle" x="248.1486" y="-113.6102" font-family="Helvetica,sans-Serif" font-size="10.00" fill="#ffffff">resources.</text>
<text text-anchor="middle" x="248.1486" y="-103.6102" font-family="Helvetica,sans-Serif" font-size="10.00" fill="#ffffff">utils</text>
</g>
<!-- codistapi_resources_utils&#45;&gt;codistapi_resources_analyze_repo -->
<g id="edge34" class="edge">
<title>codistapi_resources_utils&#45;&gt;codistapi_resources_analyze_repo</title>
<path fill="none" stroke="#000000" d="M224.7138,-93.4999C213.724,-82.6622 200.4682,-69.5899 188.6194,-57.9051"/>
<polygon fill="#000000" stroke="#000000" points="191.0342,-55.3709 181.4564,-50.8414 186.1191,-60.3551 191.0342,-55.3709"/>
</g>
<!-- codistapi_resources_utils&#45;&gt;codistapi_resources_clone_repo -->
<g id="edge42" class="edge">
<title>codistapi_resources_utils&#45;&gt;codistapi_resources_clone_repo</title>
<path fill="none" stroke="#000000" d="M271.5833,-93.4999C282.7475,-82.4902 296.2503,-69.1744 308.2409,-57.3498"/>
<polygon fill="#000000" stroke="#000000" points="310.8143,-59.7277 315.4769,-50.214 305.8991,-54.7435 310.8143,-59.7277"/>
</g>
</g>
</svg>
